External Loads File
version=1
nRows=20
nColumns=25
Range=5.000000e-03-10 seconds
endheader
time 	forceCrankRightX 	forceCrankRightY 	forceCrankRightZ 	pointCrankRightX 	pointCrankRightY 	pointCrankRightZ 	forceCrankLeftX 	forceCrankLeftY 	forceCrankLeftZ 	pointCrankLeftX 	pointCrankLeftY 	pointCrankLeftZ 	forceHandlebarRightX 	forceHandlebarRightY 	forceHandlebarRightZ 	pointHandlebarRightX 	pointHandlebarRightY 	pointHandlebarRightZ 	forceHandlebarLeftX 	forceHandlebarLeftY 	forceHandlebarLeftZ 	pointHandlebarLeftX 	pointHandlebarLeftY 	pointHandlebarLeftZ 		
5.005000 232.707239 946.815181 -0.000000 0.527648 0.163586 -0.128226 29.051221 35.322253 -0.000000 0.479281 0.484029 -0.375913 -61.265260 0.000000 0.000000 1.029227 1.038373 -0.089250 289.988980 0.000000 0.000000 1.007672 0.985657 -0.391258
5.010000 234.609041 928.726486 -0.000000 0.522842 0.161819 -0.127879 30.309361 34.636527 -0.000000 0.484753 0.485930 -0.375588 -77.937089 0.000000 0.000000 1.029350 1.040683 -0.091361 284.228931 0.000000 0.000000 1.007513 0.985177 -0.392308
5.015000 235.657970 905.781698 -0.000000 0.517897 0.160406 -0.127255 31.490954 33.826122 -0.000000 0.490185 0.487870 -0.375255 -93.374107 0.000000 0.000000 1.028055 1.039998 -0.092697 278.483499 0.000000 0.000000 1.007075 0.984010 -0.393548
5.020000 234.697937 878.422289 -0.000000 0.513089 0.159389 -0.126944 32.546570 32.925055 -0.000000 0.495507 0.489420 -0.374877 -108.943507 0.000000 0.000000 1.027853 1.040890 -0.094516 273.557292 0.000000 0.000000 1.006941 0.982330 -0.395180
5.025000 232.321110 846.830511 -0.000000 0.508439 0.158340 -0.126470 33.498028 31.935540 -0.000000 0.500921 0.490639 -0.374462 -124.482089 0.000000 0.000000 1.026751 1.039858 -0.096110 268.701599 0.000000 0.000000 1.006389 0.981273 -0.396609
5.030000 229.880556 811.139197 -0.000000 0.503756 0.157790 -0.125963 34.397705 30.835392 -0.000000 0.506780 0.492186 -0.374533 -140.694699 0.000000 0.000000 1.026211 1.040521 -0.098271 264.332850 0.000000 0.000000 1.005882 0.979880 -0.397996
5.035000 223.810718 773.059772 -0.000000 0.499354 0.157324 -0.125712 35.108792 29.809714 -0.000000 0.511859 0.493035 -0.373861 -157.166327 0.000000 0.000000 1.026067 1.041549 -0.100146 259.650583 0.000000 0.000000 1.006383 0.978732 -0.399929
5.040000 218.507301 732.235794 -0.000000 0.494467 0.157072 -0.124614 35.798658 28.697484 -0.000000 0.517137 0.493855 -0.373375 -174.081672 0.000000 0.000000 1.025249 1.040717 -0.101628 254.855705 0.000000 0.000000 1.006590 0.977838 -0.401536
5.045000 212.137314 690.185714 -0.000000 0.489979 0.157186 -0.123917 36.401228 27.605262 -0.000000 0.522591 0.494506 -0.372858 -191.539751 0.000000 0.000000 1.025665 1.042448 -0.103254 250.196387 0.000000 0.000000 1.006415 0.976678 -0.402891
5.050000 205.171421 647.696741 -0.000000 0.485635 0.157418 -0.123387 36.943763 26.542976 -0.000000 0.528025 0.494762 -0.372641 -209.443102 0.000000 0.000000 1.025662 1.043361 -0.104773 245.755707 0.000000 0.000000 1.007003 0.976080 -0.404296
5.055000 197.752489 605.428526 -0.000000 0.481401 0.157956 -0.123168 37.439576 25.532472 -0.000000 0.533360 0.495061 -0.372359 -227.344981 0.000000 0.000000 1.025111 1.042526 -0.106215 240.899007 0.000000 0.000000 1.007665 0.975221 -0.405893
5.060000 190.530367 563.526903 -0.000000 0.477203 0.158619 -0.122640 37.914018 24.536826 -0.000000 0.538787 0.495021 -0.372217 -245.120375 0.000000 0.000000 1.025613 1.044721 -0.107431 235.874713 0.000000 0.000000 1.007444 0.974531 -0.406760
5.065000 182.926377 522.024231 -0.000000 0.473071 0.159235 -0.122454 38.335207 23.560301 -0.000000 0.544126 0.494753 -0.372053 -262.886508 0.000000 0.000000 1.025591 1.044149 -0.108424 231.072649 0.000000 0.000000 1.008597 0.973617 -0.408279
5.070000 174.983869 480.139906 -0.000000 0.468914 0.160437 -0.122094 38.706162 22.536743 -0.000000 0.549444 0.494069 -0.372095 -281.026025 0.000000 0.000000 1.025556 1.043507 -0.109371 226.367921 0.000000 0.000000 1.009183 0.972537 -0.409401
5.075000 165.400056 437.312518 -0.000000 0.464827 0.160903 -0.121925 38.980443 21.492070 -0.000000 0.554789 0.493253 -0.372126 -298.830627 0.000000 0.000000 1.025785 1.044313 -0.111117 221.855992 0.000000 0.000000 1.009215 0.971151 -0.411650
5.080000 154.471048 392.942431 -0.000000 0.460699 0.163115 -0.121631 39.194778 20.351717 -0.000000 0.560016 0.492208 -0.372225 -316.241242 0.000000 0.000000 1.025842 1.043634 -0.112271 217.267843 0.000000 0.000000 1.010519 0.970540 -0.413134
5.085000 141.465842 348.094483 -0.000000 0.456572 0.164358 -0.121523 39.332040 19.212505 -0.000000 0.565198 0.490859 -0.372370 -332.639618 0.000000 0.000000 1.025897 1.043247 -0.113106 212.400408 0.000000 0.000000 1.011407 0.969706 -0.414342
5.090000 128.060923 304.043601 -0.000000 0.452014 0.166432 -0.121937 39.484397 18.004624 -0.000000 0.570333 0.489394 -0.372694 -348.261019 0.000000 0.000000 1.026362 1.043335 -0.114093 207.322195 0.000000 0.000000 1.011476 0.968660 -0.415253
5.095000 114.362068 262.921358 -0.000000 0.447811 0.168460 -0.121995 39.633193 16.860852 -0.000000 0.575420 0.487729 -0.372964 -363.746668 0.000000 0.000000 1.026189 1.042690 -0.115063 203.629482 0.000000 0.000000 1.011275 0.967466 -0.416171
5.100000 102.082992 225.637251 -0.000000 0.443320 0.171019 -0.121745 39.835923 15.673459 -0.000000 0.580417 0.485404 -0.373324 -378.094334 0.000000 0.000000 1.026799 1.042482 -0.115680 199.867710 0.000000 0.000000 1.013814 0.967634 -0.417715
